<?xml version="1.0" encoding="UTF-8"?>
<svg id="Layer_1" data-name="Layer 1" xmlns="http://www.w3.org/2000/svg" viewBox="0 0 111.13 21.87">
  <defs>
    <style>
      .cls-1 {
        fill: #fff;
      }

      .cls-2 {
        fill: #e63441;
      }

      .cls-3 {
        fill: #f15e22;
      }

      .cls-4 {
        fill: #0e4c7e;
      }

      .cls-5 {
        fill: #134f7f;
      }

      .cls-6 {
        fill: #fcfdfd;
      }
    </style>
  </defs>
  <g>
    <path class="cls-1" d="M25.14,8.06c0-1.09.81-1.75,2.08-1.75h.41v-.38c.52.28,1.09.38,1.77.4-.16.13-.4.22-.4.85v.73c0,.57.19.87.56.87.12,0,.13.31.13.48,0,.15-.01.43-.13.43-.52,0-.95-.2-1.24-.49-.37.37-.88.55-1.36.55-1.13,0-1.82-.59-1.82-1.68h0ZM26.51,4.46c.3,0,.54.2.62.47.08-.27.32-.47.62-.47.36,0,.65.29.65.65s-.29.64-.65.64c-.3,0-.54-.2-.62-.47-.08.27-.32.47-.62.47-.36,0-.64-.29-.64-.64s.29-.65.64-.65ZM27.08,8.84c.35,0,.54-.27.54-.92v-.69h-.41c-.48,0-.7.33-.7.83s.22.78.56.78h.01Z"/>
    <path class="cls-1" d="M29.43,9.25c0-.17.01-.48.13-.48.38,0,.56-.3.56-.87v-3.72c.58.28,1.04.39,1.77.41-.15.13-.39.22-.39.85v2.47c0,.57.19.87.56.87.12,0,.13.31.13.48,0,.15,0,.43-.13.43-.5,0-.92-.19-1.21-.46-.28.26-.69.46-1.29.46-.12,0-.13-.28-.13-.43h0Z"/>
    <path class="cls-1" d="M33.28,9.2c-.29.29-.71.49-1.22.49-.12,0-.13-.28-.13-.43,0-.17,0-.48.13-.48.35,0,.53-.24.53-.87v-1.57h.24l1.54-.02c1.27,0,2.08.66,2.08,1.75s-.68,1.63-1.7,1.63c-.68,0-1.16-.22-1.47-.5ZM34.51,8.78c.34,0,.56-.3.56-.75,0-.5-.22-.8-.7-.8h-.41v.79c0,.47.2.77.54.77h0Z"/>
    <path class="cls-1" d="M36.99,7.9v-3.72c.52.29,1.08.4,1.77.41-.16.13-.39.22-.39.85v2.47c0,.68.22.87.56.87.12,0,.13.31.13.48,0,.15,0,.43-.13.43-1.35,0-1.94-.69-1.94-1.78h0Z"/>
    <path class="cls-1" d="M38.79,9.25c0-.17,0-.48.13-.48.45,0,.94-.04,1.38-.12-.36-.31-.59-.7-.69-1.15-.17.08-.33.17-.45.29v-1.21c.42-.16,1.17-.32,2.17-.32,1.64,0,2.19.41,2.19,1.16,0,.54-.24.97-.64,1.3.27.03.55.05.87.05.12,0,.13.31.13.48,0,.15,0,.43-.13.43-.8,0-1.55-.11-2.18-.33-.81.24-1.77.33-2.66.33-.12,0-.13-.28-.13-.43h.01ZM41.54,8.27c.34-.18.55-.41.55-.7s-.31-.39-.71-.39c-.17,0-.33,0-.48.02.03.41.22.79.64,1.07Z"/>
    <path class="cls-1" d="M43.62,9.25c0-.17,0-.48.13-.48.38,0,.56-.18.56-.75v-3.84c.58.28,1.04.39,1.77.41-.15.13-.39.2-.39.83v2.49c0,1.09-.53,1.78-1.94,1.78-.12,0-.13-.28-.13-.43h0Z"/>
    <path class="cls-1" d="M46.46,8.78v-4.6c.52.29,1.08.39,1.77.41-.15.13-.39.22-.39.85v3.35c0,.31.1.82.26.91h-1.89c.15-.08.26-.59.26-.91h0Z"/>
    <path class="cls-1" d="M50.42,8.97c0-1.13.68-1.95,1.76-1.94v1.45c-.5-.13-.85.17-.85.59,0,.68.87,1.19,1.86,1.19.89,0,1.27-.43,1.27-.73,0-.73-1.9-.5-1.9-1.89,0-.64.52-1.38,1.94-1.38.43,0,.8.05,1.22.17v1.22c-.34-.34-.64-.48-1.07-.48s-.66.2-.66.41c0,.69,1.87.45,1.87,1.89,0,.96-.97,1.92-2.66,1.92s-2.79-1.05-2.79-2.42h.01Z"/>
    <path class="cls-1" d="M59.72,9.29c-.29.27-.71.39-1.26.39h-.74c-.51,0-1.12-.08-1.4-.27v-1.15c.23.23.73.5,1.36.5h.38c.45,0,.62-.24.62-.58,0-.49-.34-1.01-1-1.01-.43,0-.82.13-1.15.46v-1.21c.42-.13.82-.17,1.25-.17,1.66,0,2.33,1.17,2.33,1.94,0,.41.18.57.55.57.12,0,.13.31.13.48,0,.15,0,.43-.13.43-.39,0-.72-.14-.96-.39h.02Z"/>
    <path class="cls-1" d="M60.54,9.25c0-.17,0-.48.13-.48.57,0,.71-.24.71-.87v-1.98c.58.28,1.04.39,1.77.41-.15.13-.39.2-.39.83v.68c0,1.15-.45,1.84-2.09,1.84-.12,0-.13-.28-.13-.43ZM61.42,10.01c.3,0,.54.2.62.47.08-.27.32-.47.62-.47.36,0,.65.29.65.65s-.29.64-.65.64c-.3,0-.54-.2-.62-.47-.08.27-.32.47-.62.47-.36,0-.64-.29-.64-.64s.29-.65.64-.65Z"/>
    <path class="cls-1" d="M64.23,3.98c.36,0,.63.27.99.27.16,0,.31-.07.41-.21l.2.13c-.2.39-.49.55-.82.55-.41,0-.57-.23-.96-.23-.15,0-.28.06-.38.2l-.2-.14c.22-.37.45-.57.77-.57h-.01ZM64.96,8.77h.68c.38,0,.65-.18.65-.75v-3.84c.58.28,1.04.39,1.77.41-.16.13-.4.2-.4.83v2.49c0,1.09-.61,1.78-2.03,1.78h-2.15v-1.15c.35.19.8.23,1.47.23h.01ZM63.97,7.47v-2.67c.52.29,1.08.38,1.77.4-.16.13-.39.22-.39.85v2.33h-1.64c.16-.08.27-.59.27-.91h0Z"/>
    <path class="cls-1" d="M68.43,8.78v-4.6c.52.29,1.08.39,1.77.41-.15.13-.39.22-.39.85v3.35c0,.31.1.82.26.91h-1.89c.15-.08.26-.59.26-.91h-.01Z"/>
    <path class="cls-1" d="M72.33,7.96c0-1.19,1.03-1.63,1.71-1.63v1.33c-.25-.22-.8-.06-.8.43,0,.42.39.68,1.13.68h1.78c.4,0,.66-.18.66-.75v-1.96c.57.28,1.04.39,1.77.41-.16.13-.39.22-.39.85v.71c0,.57.27.75.65.75.12,0,.13.31.13.48,0,.15,0,.43-.13.43-.53,0-.99-.21-1.31-.51-.3.29-.75.51-1.38.51h-1.77c-1.4,0-2.05-.81-2.05-1.73ZM75.33,10.01c.36,0,.65.29.65.65s-.29.64-.65.64-.64-.29-.64-.64.29-.65.64-.65Z"/>
    <path class="cls-1" d="M78.7,9.25c0-.17.01-.48.13-.48.38,0,.56-.3.56-.87v-3.72c.58.28,1.04.39,1.77.41-.15.13-.39.22-.39.85v2.47c0,.57.19.87.56.87.12,0,.13.31.13.48,0,.15-.01.43-.13.43-.5,0-.92-.19-1.21-.46-.28.26-.69.46-1.29.46-.12,0-.13-.28-.13-.43h0Z"/>
    <path class="cls-1" d="M85.16,9.29c-.29.28-.69.39-1.09.39h-2.74c-.12,0-.13-.28-.13-.43,0-.17.01-.48.13-.48h2.31c.4,0,.5-.23.5-.52,0-.45-.45-1.08-1.29-1.08-.51,0-1.03.31-1.29.66v-1.33c.42-.15.92-.24,1.56-.24,1.72,0,2.46,1.06,2.46,1.94,0,.41.18.57.54.57.12,0,.13.31.13.48,0,.15-.01.43-.13.43-.39,0-.73-.14-.96-.39ZM83.25,10.01c.36,0,.65.29.65.65s-.29.64-.65.64-.64-.29-.64-.64.29-.65.64-.65Z"/>
    <path class="cls-1" d="M85.99,9.25c0-.17.01-.48.13-.48.38,0,.56-.18.56-.75v-3.84c.58.28,1.04.39,1.77.41-.15.13-.39.2-.39.83v2.49c0,1.09-.53,1.78-1.94,1.78-.12,0-.13-.28-.13-.43h0Z"/>
    <path class="cls-1" d="M90.49,8.77h.71c-.3-.22-.47-.54-.47-1,0-.66.47-1.3,1.91-1.3.43,0,.81.05,1.23.17v1.21c-.34-.34-.68-.47-1.02-.47-.41,0-.68.27-.68.65,0,.5.54.73.87.73.52,0,.8-.15.99-.34v1.06c-.21.13-.58.2-1.24.2h-1.31c-.52,0-.86.08-.99.24v-1.16h0Z"/>
    <path class="cls-1" d="M94.56,7.9v-3.72c.52.29,1.08.4,1.77.41-.16.13-.39.22-.39.85v2.47c0,.68.22.87.56.87.12,0,.13.31.13.48,0,.15,0,.43-.13.43-1.35,0-1.94-.69-1.94-1.78h0Z"/>
    <path class="cls-1" d="M97.73,9.2c-.29.29-.72.49-1.24.49-.12,0-.13-.28-.13-.43,0-.17.01-.48.13-.48.38,0,.55-.24.55-.87v-1.57h.24l1.55-.02c1.27,0,2.08.66,2.08,1.75,0,.54.17.71.54.71.12,0,.13.31.13.48,0,.15,0,.43-.13.43-.44,0-.78-.15-1-.41-.3.28-.73.42-1.25.42-.68,0-1.16-.22-1.47-.5ZM98.96,8.78c.35,0,.56-.3.56-.75,0-.5-.21-.8-.69-.8h-.41v.79c0,.47.2.77.54.77h0Z"/>
    <path class="cls-1" d="M101.31,9.25c0-.17.01-.48.13-.48.48,0,.68-.3.68-.87v-1.84c.57.28,1.04.39,1.77.41-.16.13-.4.22-.4.85v.59c0,.57.22.87.68.87.12,0,.13.31.13.48,0,.15-.01.43-.13.43-.57,0-1.03-.2-1.33-.49-.29.28-.75.49-1.4.49-.12,0-.13-.28-.13-.43h0ZM102.23,10.01c.3,0,.54.2.62.47.08-.27.32-.47.62-.47.36,0,.65.29.65.65s-.29.64-.65.64c-.3,0-.54-.2-.62-.47-.08.27-.32.47-.62.47-.36,0-.64-.29-.64-.64s.29-.65.64-.65Z"/>
    <path class="cls-1" d="M104.05,9.25c0-.17.01-.48.13-.48.39,0,.57-.3.57-.87v-1.85c.58.27,1.04.39,1.77.4-.15.13-.39.22-.39.85v.75c0,.41.12.72.47.72.3,0,.46-.29.46-.72v-2.01c.58.27,1.04.39,1.77.4-.15.13-.39.22-.39.85v.75c0,.41.12.72.47.72.31,0,.45-.29.45-.72v-2.21c.58.27,1.04.39,1.77.4-.16.13-.4.22-.4.85v.84c0,1.03-.41,1.76-1.73,1.76-.5,0-.93-.15-1.24-.42-.28.24-.66.42-1.08.42-.5,0-.92-.19-1.22-.47-.27.27-.69.46-1.29.46-.12,0-.13-.28-.13-.43h.01Z"/>
  </g>
  <g>
    <path class="cls-3" d="M25.52,17.17c-.32-.24-.5-.58-.52-1.03h1.28c.01.15.06.26.13.33.08.07.18.1.3.1.11,0,.2-.03.27-.08s.11-.13.11-.23c0-.13-.06-.22-.18-.29s-.31-.15-.58-.23c-.28-.09-.51-.18-.68-.27s-.32-.22-.45-.39-.19-.39-.19-.66.07-.52.21-.71c.14-.2.33-.35.58-.45.24-.1.52-.15.83-.15.5,0,.9.12,1.2.35.3.23.46.56.48.99h-1.3c0-.13-.04-.23-.12-.29-.08-.07-.17-.1-.29-.1-.09,0-.16.03-.22.08s-.09.13-.09.23c0,.08.03.15.09.21s.14.11.24.15c.09.04.23.1.42.16.27.09.5.19.68.28s.33.22.46.39.19.37.19.63-.06.49-.19.69-.31.37-.56.48c-.24.12-.53.18-.86.18-.5,0-.91-.12-1.24-.36h0Z"/>
    <path class="cls-3" d="M31.66,16.78h-1.53l-.23.7h-1.26l1.57-4.32h1.38l1.57,4.32h-1.27l-.23-.7ZM31.36,15.86l-.47-1.4-.46,1.4h.93Z"/>
    <path class="cls-3" d="M37.47,13.17l-1.52,2.94v1.37h-1.21v-1.37l-1.52-2.94h1.37l.76,1.67.76-1.67h1.36Z"/>
    <path class="cls-3" d="M42.88,13.17v4.32h-1.2v-2.38l-.81,2.38h-1l-.82-2.4v2.4h-1.2v-4.32h1.45l1.08,2.8,1.06-2.8s1.44,0,1.44,0Z"/>
    <path class="cls-3" d="M46.29,16.78h-1.53l-.23.7h-1.26l1.57-4.32h1.38l1.57,4.32h-1.27s-.23-.7-.23-.7ZM45.99,15.86l-.47-1.4-.46,1.4h.93Z"/>
    <path class="cls-3" d="M54.39,13.17v4.32h-1.2v-2.38l-.81,2.38h-1l-.82-2.4v2.4h-1.2v-4.32h1.45l1.08,2.8,1.06-2.8s1.44,0,1.44,0Z"/>
    <path class="cls-3" d="M57.81,16.78h-1.53l-.23.7h-1.26l1.57-4.32h1.38l1.57,4.32h-1.27s-.23-.7-.23-.7ZM57.51,15.86l-.47-1.4-.46,1.4h.93Z"/>
    <path class="cls-3" d="M63.7,17.49h-1.2l-1.6-2.41v2.41h-1.2v-4.32h1.2l1.6,2.44v-2.44h1.2v4.32Z"/>
    <path class="cls-3" d="M67.62,15.32c-.12.21-.3.39-.54.51-.24.13-.54.19-.89.19h-.59v1.46h-1.2v-4.32h1.79c.35,0,.64.06.88.18s.43.29.55.51.18.47.18.75c0,.26-.06.5-.18.71h0ZM66.57,14.61c0-.31-.17-.47-.51-.47h-.48v.94h.48c.34,0,.51-.16.51-.47Z"/>
    <path class="cls-3" d="M69.24,17.24c-.34-.19-.61-.45-.81-.79s-.3-.72-.3-1.14.1-.81.3-1.14c.2-.34.47-.6.81-.79s.71-.28,1.11-.28.78.09,1.12.28c.34.19.6.45.8.79.2.34.29.72.29,1.14s-.1.8-.29,1.14c-.2.34-.46.6-.8.79s-.71.28-1.11.28-.78-.09-1.11-.28h-.01ZM71.07,16.11c.18-.2.27-.47.27-.8s-.09-.61-.27-.81-.42-.3-.73-.3-.55.1-.73.3c-.18.2-.26.47-.26.81s.09.61.26.8c.18.2.42.3.73.3s.55-.1.73-.3Z"/>
    <path class="cls-3" d="M79.18,13.17l-1.06,4.32h-1.48l-.59-2.64-.61,2.64h-1.48l-1.05-4.32h1.3l.5,2.95.68-2.95h1.32l.66,2.93.5-2.93h1.31Z"/>
    <path class="cls-3" d="M80.89,14.13v.7h1.38v.91h-1.38v.78h1.56v.96h-2.76v-4.32h2.76v.96h-1.56Z"/>
    <path class="cls-3" d="M85.23,17.49l-.86-1.59h-.13v1.59h-1.2v-4.32h1.89c.35,0,.64.06.88.18s.42.29.54.5.18.45.18.71c0,.29-.08.55-.24.77s-.4.38-.71.47l.97,1.68h-1.34.02ZM84.24,15.07h.59c.16,0,.29-.04.37-.12s.12-.19.12-.34c0-.14-.04-.25-.13-.33-.08-.08-.2-.12-.36-.12h-.59v.9h0Z"/>
    <path class="cls-3" d="M88.65,17.17c-.32-.24-.5-.58-.52-1.03h1.28c.01.15.06.26.13.33.08.07.18.1.3.1.11,0,.2-.03.27-.08s.11-.13.11-.23c0-.13-.06-.22-.18-.29s-.31-.15-.58-.23c-.28-.09-.51-.18-.68-.27s-.32-.22-.45-.39-.19-.39-.19-.66.07-.52.21-.71c.14-.2.33-.35.58-.45.24-.1.52-.15.83-.15.5,0,.9.12,1.2.35.3.23.46.56.48.99h-1.3c0-.13-.04-.23-.12-.29-.08-.07-.17-.1-.29-.1-.09,0-.16.03-.22.08s-.09.13-.09.23c0,.08.03.15.09.21s.14.11.24.15c.09.04.23.1.42.16.27.09.5.19.68.28s.33.22.46.39.19.37.19.63-.06.49-.19.69-.31.37-.56.48c-.24.12-.53.18-.86.18-.5,0-.91-.12-1.24-.36h0Z"/>
    <path class="cls-3" d="M93.23,13.17v2.5c0,.23.05.41.16.54.11.13.27.19.49.19s.39-.06.5-.19c.11-.13.17-.31.17-.54v-2.5h1.2v2.5c0,.4-.08.73-.25,1.01s-.4.49-.68.63c-.29.14-.61.21-.96.21s-.66-.07-.94-.21-.49-.35-.65-.63c-.16-.28-.24-.62-.24-1.02v-2.5h1.2Z"/>
    <path class="cls-3" d="M99.64,15.32c-.12.21-.3.39-.54.51-.24.13-.54.19-.89.19h-.59v1.46h-1.2v-4.32h1.79c.35,0,.64.06.88.18s.43.29.55.51.18.47.18.75c0,.26-.06.5-.18.71h0ZM98.6,14.61c0-.31-.17-.47-.51-.47h-.48v.94h.48c.34,0,.51-.16.51-.47Z"/>
    <path class="cls-3" d="M103.53,15.32c-.12.21-.3.39-.54.51-.24.13-.54.19-.89.19h-.59v1.46h-1.2v-4.32h1.79c.35,0,.64.06.88.18s.43.29.55.51.18.47.18.75c0,.26-.06.5-.18.71h0ZM102.49,14.61c0-.31-.17-.47-.51-.47h-.48v.94h.48c.34,0,.51-.16.51-.47Z"/>
    <path class="cls-3" d="M105.4,16.57h1.34v.92h-2.54v-4.32h1.2s0,3.4,0,3.4Z"/>
    <path class="cls-3" d="M111.13,13.17l-1.52,2.94v1.37h-1.21v-1.37l-1.52-2.94h1.37l.76,1.67.76-1.67h1.36Z"/>
  </g>
  <g>
    <rect class="cls-6" y="0" width="21.87" height="21.87" rx="2.34" ry="2.34"/>
    <g>
      <path class="cls-5" d="M15.56,4.99v-.69h1.73c.1,0,.02.25.02.31,0,.3.02.6.03.9,0,.25-.02.5.02.74l2.49,1.73v1.83l-1.48-.96c.1.37.21.74.29,1.12.57,3.08-.71,6.31-3.35,8.01-.19-.94-.34-1.9-.58-2.84-.05-.2-.22-.59-.24-.75s.08-.3-.02-.51c-.02-.06-.1-.1-.11-.15-.02-.07.03-.2,0-.31-.04-.17-.46-.34-.36-.45.07-.07.54.19.63.25.32.25.4.59.48.97.16.74.23,1.55.28,2.31.06.09.89-.93.95-1.01,1.73-2.35,1.77-5.59.07-7.97l-5.49-3.77-5.7,3.89c-1.92,2.76-1.43,6.6,1.04,8.85.06.06.61.53.66.48.02-.12.02-.25.04-.37.13-.71.44-1.82.35-2.51-.08-.59-.86-.55-1.12-1.05-.17-.32-.15-.65-.02-.99.09-.21.52-.78.52-.93,0-.16-.23-.59-.33-.72-.08-.11-.25-.18-.23-.35.1-.03.24.04.31.03.07,0,.12-.11.21-.13.1-.02.18.04.25.03.02,0,.12-.21.29-.13-.21.51-.23,1.07-.02,1.58.36-.28.28.04.36.13.02.03.14,0,.16.16.02.29-.32.26-.29.51.04.3.21.28.4.42.46.36.54.82.51,1.39.08.02.06-.02.08-.04.06-.08.09-.15.17-.22.22-.18.53-.22.81-.23,0,.23-.02.36.13.55.03.03.13.08.13.1,0,0-.06.05-.06.1-.02.15.02.32.12.44.04.05.13.08.14.12.02.07,0,.19.02.29.02.14.17.25.18.31.07.25-.07,1.13-.1,1.44-.04.56-.08,1.12-.13,1.68-.02.2,0,.47-.03.66,0,.03-.02.07-.06.08-.05,0-.76-.15-.87-.17-.91-.24-1.85-.69-2.61-1.24-2.77-2.03-3.96-5.62-2.88-8.92l-1.31.86v-1.88c2.99-1.99,5.91-4.06,8.89-6.06l4.66,3.13h0ZM6.64,12.1s0-.12.02-.17c.06-.2.21-.43.15-.63l-.38.5c-.19.34-.31.73-.11,1.1.26.51,1.12.45,1.21,1.16.18,1.34-1.02,2.78.07,4.04.27.32.75.5,1.01.07.41-.67-.31-2.68-.42-3.49-.1-.66.09-1.7-.63-2.02.06.29.5,1.24.35,1.48-.11.17-.29-.21-.32-.28-.18-.4-.26-.89-.39-1.31l-.06.13c-.07-.22-.09-.4.04-.6.06-.09.45-.39.39-.45-.25,0-.52.3-.66.49l-.03-.06c.07-.12.14-.21.25-.3.06-.05.36-.21.28-.29-.12-.11-.66.51-.72.63h-.04Z"/>
      <path class="cls-3" d="M15.33,18.69v.1c-1.29,1.1-3.24,1.51-4.87,1.04-.1-.02-.48-.14-.53-.2-.06-.06-.04-.16-.03-.23.08-1.2.25-2.42.3-3.62,0-.1.02-.3,0-.4-.02-.09-.14-.17-.17-.29-.03-.1,0-.31-.03-.35-.03-.05-.23-.14-.28-.3-.06-.18.06-.34.05-.38-.02-.06-.32-.18-.32-.4,0-.07.04-.14.03-.21-.13,0-.59-.02-.52-.21.08-.21.62-.07.8-.1.11-.02.33-.17.41-.11.05.03.29.5.33.59.12.27.21.55.26.84.93-.12,1.84-.35,2.76-.49-.08-.51-.18-.9-.64-1.18-.02-.02-.1,0-.05-.07.02-.02.32-.06.4-.08.16-.05.2-.14.41-.12.26.03.07.17.08.21,0,.03.13.07.17.16s0,.2.04.25c.03.06.28.15.33.26.06.13-.06.25-.05.31,0,.04.1.06.13.1.15.17-.02.32,0,.51.02.25.2.66.26.93.28,1.12.47,2.27.71,3.41l.02.02Z"/>
      <path class="cls-5" d="M8.82,11.67c-1.04-2.58-.59-6.42,2.98-6.13.97.08,2,.8,2.21,1.77.14.66-.14,1.13.06,1.82.23.79.71,1.19,1.43,1.51.02,0,.07,0,.05.06s-.57.5-.65.54c-.3.15-.51-.35-.77-.42.1.25.33.39.46.6-.02.13-.86.4-1.01.44-.3.07-.61.09-.92.14-.04.06-.02.65.02.74.04.07.27.19.34.27.17.17.32.58.36.81,0,.04.02.06-.02.09l-2.53.41c-.07-.42-.24-.86-.49-1.2.29-.13.42-.21.53-.52.14-.42.04-.39-.35-.44-.1-.02-.43,0-.5-.05-.05-.03-.24-.45-.37-.49,0-.02,0-.06-.02-.1-.03-.06-.17-.17-.15-.05.02.07.14.28.18.38.03.09.06.17.08.26-.03.04-.51.07-.56.2h-.03c-.06-.11-.13-.22-.2-.33,0-.02-.02-.05-.03-.06,0-.09-.04-.17-.1-.23ZM13.76,8.05c.03-2.69-3.45-2.82-4.41-.6-.04.09-.13.31-.13.39,0,.15.1-.03.11-.05.46-.48,1.07-.93,1.73-1.08,1-.23,2.17.02,2.57,1.06.02.03.06.37.13.29h0ZM9.57,9.2c.16,1.26.44,2.1,1.64,2.66.25.11.48.23.74.16.49-.13,1.08-.65,1.3-1.11.25-.53.34-1.62.28-2.2-.05-.39-.8-.55-1.12-.6-.67-.12-1.27-.13-1.92-.35-.1-.03-.24-.15-.33-.12-.12.04-.34.78-.4.92-.13.29-.27.54-.51.74.08.09.31-.13.33-.12v.02ZM12.51,11.94c-.22.04-.44.23-.67.23-.14,0-.74-.26-.78-.23.02.17,0,.33-.04.5-.02.13-.19.51-.19.57,0,.17.55.41.7.45.4.11,1.37.19,1.16-.47-.06-.17-.18-.38-.18-.58,0,0,0-.48,0-.48Z"/>
      <path class="cls-3" d="M7.17,7.79c-.13.22-.17.5-.17.76.1.02.06-.02.07-.07.04-.1.06-.19.14-.25.07-.02.05.03.05.08,0,.1-.08.21-.06.32.1-.02.17-.1.27-.14.03,0,.08-.06.06.02s-.18.25-.22.37c-.06.14-.08.36-.1.52,0,.09.02.29-.02.34-.04.06-.16.02-.23.04-.05.02-.07.08-.11.09-.05,0-.13-.04-.22-.02-.07.02-.13.1-.18.11-.08.02-.25-.04-.36,0-.11-.22-.25-.52-.41-.71-.1-.12-.47-.32-.05-.23l-.17-.2h.23s-.39-.18-.33-.23l.33.03-.15-.2.25.06-.26-.29c.19-.02.35.02.53.06l-.13-.25.13-.02s-.15-.17-.02-.17c.21.02.4.26.55.4,0-.13,0-.28.12-.36l.02.25c.06.06.1-.07.17-.13.04-.04.26-.21.3-.18h0ZM6.18,8.15c0-.06-.04-.11-.1-.1.02.03.1.11.1.1Z"/>
      <path class="cls-6" d="M6.64,12.1s-.1-.02-.06.13c.1.02.06-.08.1-.13.07-.11.61-.74.72-.63.08.08-.22.25-.28.29-.1.1-.17.18-.25.3-.06.09-.13.18-.13.29l.17-.23c.14-.2.41-.48.66-.49.06.06-.33.36-.39.45-.13.21-.1.38-.04.6l.06-.13c.13.42.21.91.39,1.31.03.07.21.44.32.28.16-.24-.28-1.2-.35-1.48.71.32.54,1.37.63,2.02.11.81.83,2.83.42,3.49-.26.43-.74.25-1.01-.07-1.09-1.26.11-2.7-.07-4.04-.1-.71-.95-.65-1.21-1.16-.19-.37-.07-.75.11-1.1l.38-.5c.06.2-.08.43-.15.63-.02.05,0,.16-.02.17h0Z"/>
      <path class="cls-6" d="M9.57,9.2s-.25.2-.33.12c.25-.2.39-.46.51-.74.06-.14.29-.88.4-.92.1-.03.24.09.33.12.66.22,1.26.23,1.92.35.32.06,1.07.21,1.12.6.07.58-.02,1.67-.28,2.2-.22.45-.81.97-1.3,1.11-.26.07-.51-.05-.74-.16-1.2-.56-1.48-1.4-1.64-2.66v-.02ZM13.13,8.55c-.13-.36-.53-.24-.79-.1,0,.16.28,0,.35,0,.18-.02.28.05.44.1ZM10.92,8.64c-.13-.29-.66-.29-.79,0,.27-.08.52-.1.79,0ZM12.9,8.81c-.31-.11-.67.03-.72.36.09-.03.22-.21.2,0,.26-.22.4.23.1.26.06.15.29.13.4.03.14-.12.11-.38.13-.4,0,0,.16-.02.26-.06s.16-.07.13-.2c-.11.08-.23.07-.36.06h-.06s-.03-.06-.06-.06h0ZM11.25,9.3c.07-.07-.38-.32-.48-.33-.34-.03-.59.28-.94.2.11.19.34.16.53.13-.13.35.48.59.59.35.03-.07-.1-.04-.15-.08-.15-.1-.03-.32.13-.29.05,0,.08.06.1.06.02,0,.03-.13.21-.03h0ZM11.66,10.51c.13.1.27.03.32-.1-.13.06-.22.06-.36.02,0,0,.03.08.04.09h0ZM12.57,10.79c.09-.09-.31-.13-.35-.13-.26,0-.75.02-.99.13l-.14.1c.12.06.13.24.25.36.31.32.93.28,1.07-.17.02-.07.02-.22.05-.25.02-.04.11-.02.12-.03h0Z"/>
      <path class="cls-3" d="M13.76,8.05c-.07.1-.12-.25-.13-.29-.4-1.03-1.58-1.29-2.57-1.06-.66.15-1.27.59-1.73,1.08-.02.02-.12.21-.11.05,0-.08.1-.3.13-.39.96-2.22,4.44-2.08,4.41.6h0Z"/>
      <path class="cls-6" d="M12.51,11.94v.48c0,.2.13.4.18.58.21.67-.77.59-1.16.47-.15-.04-.7-.29-.7-.45,0-.06.17-.44.19-.57.03-.17.06-.32.04-.5.03-.03.63.23.78.23.23,0,.45-.19.67-.23Z"/>
      <path class="cls-6" d="M6.18,8.15s-.09-.07-.1-.1c.06,0,.11.04.1.1Z"/>
      <path class="cls-5" d="M12.57,10.79s-.09,0-.12.03c-.02.03-.02.18-.05.25-.14.45-.76.49-1.07.17-.12-.13-.13-.31-.25-.36l.14-.1c.24-.1.73-.13.99-.13.04,0,.44.04.35.13h0ZM12.34,10.79c-.2.03-.41.13-.61.13-.11,0-.29-.04-.4-.06-.05,0-.09-.03-.07.04.33.33.83.27,1.09-.11Z"/>
      <path class="cls-5" d="M13.13,8.55c-.16-.06-.26-.12-.44-.1-.07,0-.36.16-.35,0,.26-.14.66-.26.79.1Z"/>
      <path class="cls-5" d="M10.92,8.64c-.27-.1-.52-.08-.79,0,.13-.29.66-.29.79,0Z"/>
      <path class="cls-6" d="M12.34,10.79c-.25.39-.75.45-1.09.11-.02-.08.02-.05.07-.04.12,0,.29.06.4.06.2,0,.42-.1.61-.13Z"/>
      <path class="cls-5" d="M10.99,9.58c-.25.22-.71.09-.63-.31-.25.06-.44.02-.55-.15.32,0,.58-.05.77-.15.36-.06.56.08.68.32l-.25-.1.04.13c-.3-.25-.55.22-.06.26Z"/>
      <path class="cls-5" d="M12.44,9.48c.27.17.66-.06.5-.43.24,0,.4-.07.47-.26-.29.06-.53.07-.73,0-.34,0-.49.18-.55.45l.21-.15v.14c.21-.3.54.1.1.25h0Z"/>
      <g>
        <path class="cls-2" d="M11.21,10.81c.24-.12.45-.15.64-.07.13-.1.34-.1.61-.05-.39.18-.81.21-1.25.11h0Z"/>
        <path class="cls-2" d="M11.21,10.92c.19.69,1.17.71,1.25-.1-.15.21-.32.37-.55.41-.29,0-.51-.12-.7-.32h0Z"/>
      </g>
      <path class="cls-4" d="M11.57,10.25c.2.19.35.17.44-.05-.13.1-.27.12-.44.05Z"/>
      <path class="cls-1" d="M14.01,17.2c.03.2,0,.38-.07.55-.08.17-.21.32-.39.44s-.41.2-.68.24c-.32.05-.6.03-.82-.06-.16-.06-.3-.17-.41-.29-.12-.13-.18-.27-.21-.4-.02-.08,0-.15.06-.22.05-.06.11-.1.2-.12.07,0,.13,0,.19.04s.1.1.15.18c.06.1.12.17.17.24s.13.11.23.14.21.04.36.02c.2-.03.35-.1.46-.21.11-.11.15-.23.13-.37-.02-.11-.06-.19-.14-.25s-.17-.1-.28-.12c-.11-.02-.25-.04-.44-.05-.25-.02-.45-.06-.62-.1s-.31-.13-.42-.25c-.11-.11-.18-.26-.21-.45-.02-.18,0-.35.07-.5.08-.16.21-.29.38-.39.17-.1.39-.17.64-.21.2-.03.38-.03.53,0,.15.02.29.08.4.14.11.07.19.14.25.23s.1.17.11.25c.02.08,0,.15-.05.23-.05.07-.11.11-.2.13-.08,0-.13,0-.18-.03-.05-.03-.1-.09-.16-.17-.08-.11-.17-.2-.26-.25s-.23-.07-.42-.04c-.17.02-.3.09-.4.17-.1.09-.13.19-.12.29,0,.06.04.12.08.16.04.04.1.08.17.1.07.02.13.04.2.06.06,0,.17.02.33.04.19.02.36.04.52.06s.29.07.41.13c.12.06.21.14.29.25.08.1.13.24.15.4v-.02Z"/>
    </g>
  </g>
</svg>