<?xml version="1.0" encoding="UTF-8"?>
<svg id="Layer_1" data-name="Layer 1" xmlns="http://www.w3.org/2000/svg" viewBox="0 0 22 22">
  <defs>
    <style>
      .cls-1 {
        fill: #fff;
      }

      .cls-2 {
        fill: #e63441;
      }

      .cls-3 {
        fill: #f15e22;
      }

      .cls-4 {
        fill: #0e4c7e;
      }

      .cls-5 {
        fill: #134f7f;
      }

      .cls-6 {
        fill: #fcfdfd;
      }
    </style>
  </defs>
  <path class="cls-5" d="M16.58,3.9v-.83h2.08c.11,0,.02.31.02.37,0,.36.03.73.04,1.08,0,.3-.03.6.02.9l3,2.08v2.2l-1.78-1.15c.12.45.26.89.34,1.35.69,3.71-.86,7.59-4.04,9.65-.23-1.14-.41-2.29-.7-3.42-.06-.24-.27-.71-.29-.91s.1-.36-.02-.61c-.03-.07-.11-.11-.13-.18-.02-.09.04-.24,0-.37-.05-.21-.55-.41-.43-.54.09-.09.65.23.75.3.39.3.48.71.58,1.16.19.89.28,1.87.33,2.78.08.1,1.07-1.12,1.14-1.22,2.08-2.83,2.14-6.74.09-9.6l-6.61-4.54-6.87,4.68c-2.31,3.32-1.73,7.95,1.25,10.66.08.07.73.64.79.57.03-.14.03-.3.05-.45.15-.86.53-2.19.42-3.02-.1-.71-1.03-.66-1.35-1.27-.21-.39-.18-.78-.02-1.19.1-.26.63-.94.63-1.12,0-.19-.28-.71-.4-.87-.1-.13-.3-.22-.28-.42.11-.04.29.05.37.04.09,0,.14-.13.25-.15.11-.02.22.05.31.04.02,0,.14-.26.34-.16-.25.62-.28,1.29-.02,1.91.44-.33.33.05.43.15.03.04.17,0,.19.19.02.34-.39.31-.34.62.05.36.26.33.49.51.55.43.65.99.61,1.67.1.02.07-.02.1-.05.08-.1.1-.18.21-.27.27-.22.64-.27.97-.28,0,.28-.03.44.16.66.04.04.15.1.15.11,0,0-.07.06-.08.12-.03.18.02.39.14.53.05.06.15.1.17.14.03.09,0,.23.02.34.03.17.2.3.22.37.09.3-.09,1.36-.11,1.74-.05.68-.1,1.35-.16,2.02-.02.24,0,.56-.04.79,0,.04-.02.09-.07.1-.06,0-.92-.18-1.05-.21-1.1-.29-2.23-.83-3.15-1.5C1.98,16.96.55,12.63,1.85,8.66l-1.58,1.03v-2.26C3.87,5.03,7.39,2.54,10.98.13l5.61,3.77h0ZM5.82,12.47s0-.14.02-.2c.08-.24.26-.52.18-.75l-.46.6c-.23.41-.37.88-.13,1.33.31.61,1.35.54,1.46,1.39.22,1.61-1.23,3.35.09,4.87.32.38.91.6,1.22.09.5-.8-.37-3.22-.51-4.21-.11-.79.1-2.05-.76-2.43.08.34.6,1.5.42,1.78-.13.21-.34-.25-.38-.33-.22-.48-.31-1.07-.47-1.57l-.08.16c-.09-.27-.1-.48.05-.73.07-.1.54-.47.47-.54-.31,0-.63.36-.79.59l-.04-.08c.09-.14.17-.25.3-.36.07-.06.44-.26.33-.35-.14-.13-.79.62-.87.75h-.05Z"/>
  <path class="cls-3" d="M16.29,20.4v.12c-1.56,1.33-3.9,1.81-5.87,1.25-.11-.03-.58-.17-.64-.24-.07-.08-.05-.19-.04-.28.1-1.45.31-2.91.36-4.36,0-.12.02-.36,0-.48-.02-.1-.17-.21-.21-.34-.04-.12,0-.37-.04-.42-.04-.06-.28-.17-.33-.36-.07-.22.07-.41.06-.46-.02-.07-.38-.22-.39-.49,0-.09.05-.17.04-.26-.16,0-.71-.02-.63-.25.1-.26.74-.09.96-.11.13-.02.4-.2.5-.13.06.04.35.6.4.71.14.32.26.67.31,1.01,1.12-.14,2.21-.42,3.33-.59-.1-.61-.22-1.09-.77-1.42-.03-.02-.12,0-.06-.09.03-.03.39-.08.48-.1.19-.06.24-.17.5-.14.31.04.09.21.1.26,0,.04.16.09.21.19s0,.24.05.31c.04.07.33.18.4.31.08.16-.08.3-.06.37,0,.05.11.08.15.12.18.21-.02.39,0,.62.03.31.24.79.31,1.12.33,1.35.56,2.74.86,4.1l.02.02Z"/>
  <path class="cls-5" d="M8.45,11.95c-1.25-3.11-.72-7.73,3.59-7.38,1.16.1,2.4.96,2.66,2.14.17.79-.17,1.36.07,2.19.28.95.86,1.43,1.72,1.81.03,0,.09,0,.06.07s-.69.6-.78.65c-.36.18-.61-.42-.93-.51.11.31.4.47.55.73-.03.15-1.03.49-1.22.52-.36.09-.73.1-1.11.17-.05.07-.02.78.03.89.05.09.32.23.41.32.2.21.38.7.44.97,0,.05.03.07-.02.1l-3.05.5c-.09-.51-.29-1.03-.59-1.45.35-.16.51-.25.64-.63.17-.51.05-.47-.42-.53-.12-.02-.52,0-.6-.06-.06-.04-.29-.54-.45-.59,0-.03,0-.07-.02-.11-.04-.07-.21-.2-.18-.06.02.09.17.33.22.46.04.1.08.21.1.31-.04.05-.61.09-.68.24h-.04c-.08-.13-.16-.27-.24-.4,0-.03-.03-.06-.04-.08,0-.1-.05-.21-.11-.28ZM14.4,7.58c.04-3.23-4.16-3.4-5.31-.73-.05.1-.16.37-.16.47,0,.18.12-.04.13-.06.55-.58,1.29-1.12,2.08-1.3,1.2-.28,2.61.03,3.1,1.28.02.04.07.45.15.34h0ZM9.35,8.97c.19,1.52.52,2.53,1.98,3.21.3.13.58.28.9.19.59-.15,1.3-.78,1.56-1.34.31-.64.41-1.96.33-2.65-.06-.47-.96-.66-1.35-.73-.8-.14-1.53-.15-2.32-.42-.11-.04-.29-.18-.4-.14-.14.05-.41.94-.49,1.11-.15.34-.32.65-.61.9.1.1.37-.15.4-.14v.02ZM12.89,12.27c-.27.05-.53.28-.81.28-.17,0-.9-.31-.94-.28.02.21,0,.4-.05.6-.03.15-.23.62-.23.69,0,.2.66.5.84.54.48.13,1.65.23,1.4-.56-.07-.2-.22-.46-.22-.7,0,0,0-.57,0-.57Z"/>
  <path class="cls-3" d="M6.46,7.27c-.16.27-.21.6-.2.92.11.02.07-.03.09-.09.05-.11.08-.23.17-.31.09-.02.06.04.06.1,0,.12-.1.25-.08.38.12-.03.2-.12.32-.17.04,0,.1-.07.07.03s-.22.31-.27.45c-.07.17-.1.44-.12.63,0,.1.02.35-.02.41-.05.07-.19.02-.28.05-.06.02-.09.1-.13.1-.06,0-.15-.05-.27-.02-.09.02-.15.11-.22.13-.1.02-.31-.05-.44,0-.13-.27-.31-.63-.5-.86-.12-.14-.56-.39-.06-.28l-.2-.24h.28s-.47-.22-.4-.28l.4.04-.18-.24.3.08-.31-.35c.23-.03.42.03.64.08l-.16-.3.16-.02s-.18-.21-.02-.2c.26.02.49.31.66.48,0-.16,0-.33.14-.44l.02.3c.08.08.11-.09.2-.16.05-.05.31-.26.36-.22h0ZM5.27,7.71c0-.08-.05-.13-.11-.11.02.04.11.13.11.11Z"/>
  <path class="cls-6" d="M5.82,12.47s-.12-.02-.08.16c.12.03.08-.1.11-.16.09-.13.73-.89.87-.75.1.1-.27.3-.33.35-.12.11-.21.22-.3.36-.07.1-.16.22-.16.35l.2-.28c.17-.24.5-.58.79-.59.08.08-.4.44-.47.54-.15.25-.12.46-.05.73l.08-.16c.15.51.25,1.1.47,1.57.04.09.25.53.38.33.19-.29-.33-1.44-.42-1.78.86.38.65,1.65.76,2.43.13.97,1,3.41.51,4.21-.31.52-.9.3-1.22-.09-1.32-1.52.13-3.25-.09-4.87-.11-.86-1.14-.78-1.46-1.39-.23-.45-.09-.91.13-1.33l.46-.6c.08.24-.1.52-.18.75-.02.06,0,.19-.02.2h0Z"/>
  <path class="cls-6" d="M9.35,8.97s-.31.24-.4.14c.3-.24.47-.55.61-.9.08-.17.34-1.06.49-1.11.11-.04.29.1.4.14.79.27,1.52.28,2.32.42.38.07,1.29.26,1.35.73.09.7-.02,2.01-.33,2.65-.27.54-.97,1.17-1.56,1.34-.31.09-.61-.06-.9-.19-1.44-.68-1.78-1.69-1.98-3.21v-.02ZM13.65,8.18c-.16-.43-.64-.29-.95-.11,0,.19.33,0,.42,0,.22-.03.33.06.53.11ZM10.99,8.3c-.16-.35-.79-.35-.95,0,.32-.1.63-.12.95,0ZM13.36,8.5c-.37-.13-.8.04-.87.44.1-.04.27-.25.24,0,.31-.27.49.28.11.31.08.18.35.15.49.04.17-.14.13-.46.15-.48,0,0,.19-.02.31-.08s.19-.09.16-.24c-.13.1-.28.09-.44.08h-.08s-.04-.07-.08-.08h0ZM11.38,9.09c.09-.09-.46-.38-.57-.4-.41-.04-.71.33-1.14.24.13.23.41.19.64.16-.16.42.57.71.72.42.04-.09-.11-.05-.18-.1-.18-.12-.04-.38.15-.35.06,0,.1.07.12.08.02,0,.04-.15.26-.04h0ZM11.87,10.55c.15.12.32.04.38-.12-.16.07-.27.08-.44.02,0,0,.04.1.05.1h0ZM12.97,10.88c.1-.1-.37-.15-.42-.16-.31,0-.91.03-1.19.15l-.17.12c.14.07.16.29.31.43.37.38,1.12.33,1.29-.21.03-.09.03-.27.06-.31.03-.05.13-.03.14-.04h0Z"/>
  <path class="cls-3" d="M14.4,7.58c-.09.11-.14-.31-.15-.34-.49-1.24-1.91-1.56-3.1-1.28-.79.18-1.53.72-2.08,1.3-.02.02-.14.25-.13.06,0-.1.12-.36.16-.47,1.15-2.67,5.34-2.5,5.31.73h0Z"/>
  <path class="cls-6" d="M12.89,12.27v.57c0,.24.15.49.22.7.25.8-.93.71-1.4.56-.18-.05-.84-.35-.84-.54,0-.07.2-.53.23-.69.04-.21.07-.39.05-.6.04-.04.76.28.94.28.28,0,.54-.23.81-.28Z"/>
  <path class="cls-6" d="M5.27,7.71s-.1-.09-.11-.11c.08,0,.13.05.11.11Z"/>
  <path class="cls-5" d="M12.97,10.88s-.1,0-.14.04c-.03.04-.03.22-.06.31-.17.54-.92.59-1.29.21-.14-.15-.16-.37-.31-.43l.17-.12c.29-.12.88-.16,1.19-.15.05,0,.52.05.42.16h0ZM12.69,10.88c-.24.04-.5.15-.73.15-.13,0-.34-.05-.49-.07-.06,0-.1-.04-.09.05.4.4,1,.32,1.31-.13Z"/>
  <path class="cls-5" d="M13.65,8.18c-.19-.07-.31-.14-.53-.11-.09,0-.43.19-.42,0,.31-.17.79-.31.95.11Z"/>
  <path class="cls-5" d="M10.99,8.3c-.32-.12-.63-.1-.95,0,.16-.35.79-.35.95,0Z"/>
  <path class="cls-6" d="M12.69,10.88c-.31.47-.91.54-1.31.13-.02-.1.03-.06.09-.05.14,0,.35.07.49.07.24,0,.51-.11.73-.15Z"/>
  <path class="cls-5" d="M11.07,9.42c-.3.27-.85.1-.75-.37-.3.07-.52.02-.67-.18.38,0,.7-.06.93-.18.43-.08.68.1.82.38l-.3-.12.05.16c-.36-.3-.66.27-.08.31Z"/>
  <path class="cls-5" d="M12.82,9.31c.32.2.79-.07.6-.52.29,0,.49-.09.56-.31-.34.08-.64.09-.88,0-.41,0-.59.22-.67.54l.25-.18v.17c.26-.36.65.12.12.3h0Z"/>
  <g>
    <path class="cls-2" d="M11.33,10.91c.29-.14.54-.18.77-.09.15-.11.41-.11.73-.06-.47.22-.97.25-1.51.13h0Z"/>
    <path class="cls-2" d="M11.33,11.05c.23.83,1.41.86,1.51-.12-.18.25-.38.45-.67.5-.35,0-.62-.14-.84-.38h0Z"/>
  </g>
  <path class="cls-4" d="M11.77,10.23c.24.23.42.21.52-.06-.15.12-.32.14-.52.06Z"/>
  <path class="cls-1" d="M14.71,18.61c.04.24,0,.46-.09.67-.1.21-.25.38-.47.52s-.5.24-.82.29c-.39.06-.73.04-.99-.08-.19-.08-.36-.2-.5-.35-.14-.16-.22-.32-.25-.49-.02-.1,0-.18.07-.27.06-.08.13-.12.24-.14.09,0,.16,0,.23.05s.12.11.18.22c.07.11.14.21.21.29s.16.13.28.17.26.05.43.02c.24-.04.42-.12.55-.25.13-.13.18-.28.16-.45-.02-.13-.08-.23-.17-.3s-.2-.11-.33-.14c-.13-.03-.31-.05-.52-.06-.3-.02-.54-.07-.74-.12s-.37-.16-.51-.3c-.13-.13-.22-.31-.26-.54-.03-.22,0-.42.09-.6.1-.19.25-.34.46-.47.21-.12.47-.21.77-.26.24-.04.46-.04.64,0,.18.03.34.1.48.17.13.09.23.17.31.28s.11.2.13.31c.02.1,0,.18-.06.28-.06.09-.13.13-.24.15-.1,0-.16,0-.22-.04-.06-.04-.11-.1-.19-.2-.1-.13-.2-.24-.31-.31s-.28-.09-.51-.05c-.21.03-.36.1-.48.21-.11.1-.16.23-.14.35,0,.08.05.14.1.19.05.05.11.1.2.12.09.03.16.05.24.07.08,0,.21.03.4.05.23.02.44.05.63.08s.35.09.5.16c.14.07.26.17.34.3.1.12.15.29.18.49v-.02Z"/>
</svg>